# xmcd
#
# Track frame offsets: 
#        150
#        34225
#        52977
#        76672
#        108159
#        130256
#        147126
#        175936
#        204783
#        221495
#
# Disc length: 3294 seconds
#
# Revision: 0
# Processed by: cddbd v1.5.2PL0 Copyright (c) Steve Scherf et al.
# Submitted via: ExactAudioCopy v1.0b1
#
DISCID=7d0cdc0a
DTITLE=Jeff Strahan - Amen To The Blues
DYEAR=2008
DGENRE=Texas Blues
TTITLE0=Southern Jeans
TTITLE1=Amen To The Blues
TTITLE2=Butterfly
TTITLE3=Living For Today
TTITLE4=Too Much Of A Good Thing
TTITLE5=Rebel By Design
TTITLE6=Give Me One Good Reason
TTITLE7=Hope And Faith
TTITLE8=New Girlfriend
TTITLE9=Take Me To Texas
EXTD=
EXTT0=
EXTT1=
EXTT2=
EXTT3=
EXTT4=
EXTT5=
EXTT6=
EXTT7=
EXTT8=
EXTT9=
PLAYORDER=
